<svg version="1.1" id="Layer_1" xmlns="http://www.w3.org/2000/svg" xmlns:xlink="http://www.w3.org/1999/xlink" x="0px" y="0px"
	 width="100%" viewBox="0 0 388 201" enable-background="new 0 0 388 201" xml:space="preserve">
<path fill="#FEFEFE" opacity="1.000000" stroke="none" 
	d="
M226.000000,202.000000 
	C152.000000,202.000000 78.499947,201.969513 5.000166,202.096313 
	C1.575663,202.102219 0.896309,201.424530 0.903306,197.999802 
	C1.034752,133.666748 1.034752,69.333267 0.903306,5.000197 
	C0.896308,1.575458 1.576205,0.901858 5.000085,0.904910 
	C131.666656,1.017797 258.333374,1.017797 384.999908,0.904910 
	C388.423798,0.901858 389.103668,1.575458 389.096680,5.000197 
	C388.965240,69.333267 388.965240,133.666748 389.096680,197.999802 
	C389.103699,201.424530 388.424927,202.106400 384.999756,202.097351 
	C332.166779,201.957855 279.333344,202.000000 226.000000,202.000000 
z"/>
<path fill="#040404" opacity="1.000000" stroke="none" 
	d="
M63.787903,124.362869 
	C35.868443,80.547592 56.824745,27.275394 106.799835,14.624316 
	C119.473717,11.415953 132.199677,12.196117 144.708923,16.187822 
	C147.013458,16.923203 148.449677,18.076689 148.546204,20.563271 
	C148.730957,25.321659 150.351486,29.965242 149.872269,34.883175 
	C116.321785,18.855967 88.011772,34.722687 75.651268,54.438801 
	C61.931404,76.323204 64.725395,103.854889 82.948380,122.845520 
	C93.524162,133.866806 106.675064,139.221649 121.699409,139.747787 
	C136.654236,140.271500 149.490356,134.460007 161.330490,124.041702 
	C162.016937,130.457077 162.592621,135.860947 163.174622,141.264130 
	C163.388016,143.245270 161.740601,143.727615 160.515198,144.439545 
	C133.944519,159.876434 107.678329,159.107895 82.000465,142.460800 
	C78.602356,140.257782 77.085556,140.459137 74.371056,143.224457 
	C58.967300,158.916611 43.327446,174.376831 27.791571,189.939575 
	C24.743660,192.992752 21.395382,194.039429 17.465591,191.785706 
	C14.083791,189.846268 13.327996,186.749664 14.009275,183.186356 
	C14.438182,180.943054 16.153254,179.498871 17.679216,177.972794 
	C32.992249,162.658813 48.209560,147.246735 63.705578,132.120209 
	C66.662727,129.233566 66.796913,127.280472 63.787903,124.362869 
z"/>
<path fill="#050505" opacity="1.000000" stroke="none" 
	d="
M80.256538,102.521515 
	C75.133408,102.747978 77.492462,99.184662 77.039040,97.223305 
	C76.650726,95.543625 77.198189,94.451263 79.345871,94.416748 
	C80.904434,94.391701 83.561111,95.579552 83.692833,92.752350 
	C83.825768,89.899437 84.828835,86.977798 81.028740,84.634201 
	C71.202309,78.574020 70.246605,65.544044 78.513855,57.628693 
	C88.142822,48.409588 102.644218,52.795685 107.356514,66.523544 
	C108.672188,65.590607 108.656448,64.053658 109.288795,62.879292 
	C112.932106,56.113003 118.487877,52.478638 126.314392,53.019459 
	C133.475220,53.514290 138.395248,57.332100 141.092209,63.903202 
	C143.761017,70.405663 142.081833,77.710281 136.957092,82.715675 
	C136.245560,83.410637 135.488281,84.067101 134.699905,84.673401 
	C132.689774,86.219299 133.159042,88.571831 133.791061,90.158188 
	C134.470352,91.863213 136.765228,91.175621 138.230316,90.676483 
	C141.027420,89.723511 143.706924,88.425323 146.766602,87.130165 
	C146.766602,93.903526 146.766602,100.299263 146.766602,107.138863 
	C143.752487,105.907051 140.908356,104.654182 137.998093,103.580505 
	C135.021332,102.482300 133.419952,103.041344 133.441757,106.821732 
	C133.479492,113.369514 133.271240,113.378052 126.794456,113.381050 
	C114.796822,113.386589 102.799194,113.384659 90.801559,113.381828 
	C83.955727,113.380219 83.919815,113.377060 83.842941,106.607086 
	C83.817589,104.374413 84.163734,102.037277 80.256538,102.521515 
z"/>
<path fill="#080808" opacity="1.000000" stroke="none" 
	d="
M283.143066,128.992706 
	C283.143036,132.319199 282.933197,135.166611 283.198395,137.969101 
	C283.501129,141.168427 282.509064,142.178360 279.175415,142.146545 
	C275.994781,142.116165 275.247131,141.126419 275.380005,138.140915 
	C275.615204,132.855927 275.445923,127.552933 275.445923,120.847160 
	C272.425568,124.005440 270.120819,126.234032 268.036774,128.652756 
	C266.401978,130.550034 265.203003,130.813339 263.476135,128.689743 
	C261.424988,126.167290 259.037506,123.918312 256.014252,120.725449 
	C256.014252,127.558563 255.768784,133.313019 256.101562,139.033813 
	C256.319275,142.776459 254.011887,141.870178 252.000549,142.032364 
	C249.547134,142.230209 248.041870,141.970535 248.103119,138.731949 
	C248.307526,127.924507 248.165848,117.110748 248.204788,106.299583 
	C248.208588,105.243958 247.652206,103.803352 249.200760,103.320656 
	C250.533554,102.905220 251.331223,103.939377 252.110886,104.806747 
	C256.556519,109.752518 260.997223,114.702736 265.722565,119.966644 
	C270.139221,115.086182 274.454651,110.281151 278.820160,105.522057 
	C279.777039,104.478912 280.591705,102.658066 282.367157,103.445122 
	C283.844391,104.099983 283.098297,105.814003 283.109863,107.037926 
	C283.177460,114.189346 283.143036,121.341743 283.143066,128.992706 
z"/>
<path fill="#080808" opacity="1.000000" stroke="none" 
	d="
M206.230072,137.802734 
	C201.475693,132.531235 196.962112,127.524277 191.334488,121.281525 
	C191.334488,128.170837 191.111908,133.539490 191.413925,138.878479 
	C191.610306,142.350174 189.681625,142.039276 187.420715,142.049362 
	C185.283936,142.058899 183.703064,142.211838 183.758255,139.089676 
	C183.952194,128.118362 183.813110,117.141426 183.868210,106.166977 
	C183.873322,105.148758 183.164429,103.637657 184.749115,103.195984 
	C186.130737,102.810898 186.708420,104.185944 187.431564,105.018944 
	C193.049820,111.490662 198.639328,117.987335 205.020172,125.383224 
	C205.020172,118.521629 205.184219,112.778778 204.951050,107.052094 
	C204.834213,104.182732 206.056274,103.612900 208.436401,103.946465 
	C210.302109,104.207939 212.904099,102.857391 212.853256,106.693268 
	C212.705566,117.832321 212.810455,128.974640 212.783432,140.115570 
	C212.781219,141.028275 213.200592,142.248016 211.942307,142.678589 
	C210.807144,143.067032 210.129501,142.150528 209.463043,141.414322 
	C208.458740,140.304901 207.467606,139.183548 206.230072,137.802734 
z"/>
<path fill="#070707" opacity="1.000000" stroke="none" 
	d="
M299.846527,113.772980 
	C301.415527,109.885788 302.858978,106.364784 304.797943,101.635124 
	C310.469543,115.531578 315.742065,128.450165 321.285278,142.032059 
	C317.496521,141.151505 313.289856,144.502899 311.355377,138.883331 
	C310.938446,137.672089 298.861725,137.264236 298.521362,138.452225 
	C296.879639,144.182388 292.496582,141.369461 288.318756,142.155655 
	C292.284058,132.412506 296.002533,123.275833 299.846527,113.772980 
z"/>
<path fill="#060606" opacity="1.000000" stroke="none" 
	d="
M237.753113,134.307007 
	C243.202026,134.152527 240.765274,137.941238 241.090393,140.036362 
	C241.544083,142.959824 239.016602,142.001541 237.658005,141.955887 
	C232.397614,141.779083 225.562943,144.186066 222.363953,140.990784 
	C219.821976,138.451782 221.587296,131.544815 221.541672,126.576195 
	C221.483582,120.252228 221.633820,113.924690 221.477249,107.604065 
	C221.411652,104.955688 221.914001,103.657951 224.968124,103.854012 
	C229.111908,104.120018 233.293900,104.080078 237.443512,103.864067 
	C240.192001,103.720993 240.916641,104.793610 240.713501,107.322296 
	C240.541611,109.462250 241.166885,111.890518 237.619568,111.519363 
	C236.137924,111.364334 234.601807,111.668137 233.133530,111.459831 
	C229.782211,110.984367 229.060394,112.395256 228.955124,115.598061 
	C228.836288,119.213257 230.695892,118.847214 233.158310,119.226051 
	C235.174179,119.536186 238.742508,116.683952 239.188675,121.707260 
	C239.552994,125.808876 238.361404,127.648575 234.105713,126.829056 
	C229.925659,126.024117 228.519257,127.736565 228.999435,131.901779 
	C229.239120,133.980835 230.039902,134.389877 231.790970,134.320831 
	C233.618881,134.248749 235.451874,134.305984 237.753113,134.307007 
z"/>
<path fill="#090909" opacity="1.000000" stroke="none" 
	d="
M374.251038,134.728455 
	C375.118011,142.014877 375.116577,142.099442 368.281494,141.984283 
	C363.993347,141.912033 358.383667,143.824539 355.779327,141.258026 
	C353.166260,138.682846 355.105377,133.059265 355.028961,128.776337 
	C354.904083,121.778992 355.133026,114.773788 354.929413,107.780151 
	C354.844482,104.862465 355.373108,103.541229 358.671265,103.838791 
	C362.308105,104.166901 365.998566,103.969925 369.663452,103.894424 
	C372.242737,103.841286 374.289398,103.465660 374.256805,107.520416 
	C374.224335,111.566666 372.370148,111.367935 369.448395,111.660767 
	C367.142151,111.891914 363.171478,109.062706 362.669739,114.449089 
	C362.335724,118.035263 363.212250,119.529060 367.176575,119.228020 
	C368.999573,119.089577 372.380798,117.094162 372.818512,121.635735 
	C373.208801,125.685120 372.036530,127.376205 367.729523,126.942589 
	C365.764313,126.744743 362.570160,125.295593 362.606476,129.891205 
	C362.632812,133.227295 363.233521,134.809799 366.919342,134.358536 
	C369.208313,134.078323 371.570953,134.400085 374.251038,134.728455 
z"/>
<path fill="#080808" opacity="1.000000" stroke="none" 
	d="
M339.937225,122.979492 
	C338.249695,126.774559 336.689850,130.213516 334.859680,134.248535 
	C338.857605,134.248535 342.307800,134.464874 345.717621,134.186386 
	C348.987427,133.919327 349.105133,135.659821 349.030975,138.090378 
	C348.963593,140.299194 349.407043,142.230423 345.907593,142.096649 
	C338.661896,141.819672 331.398224,142.013107 323.475281,142.013107 
	C328.128204,131.524231 332.524170,121.614609 337.140839,111.207497 
	C334.205811,111.207497 331.917267,111.054886 329.657593,111.245110 
	C326.653198,111.498001 325.268646,110.869667 325.263153,107.293945 
	C325.257385,103.548431 327.246429,103.877777 329.657043,103.898621 
	C335.633698,103.950310 341.611115,103.915611 348.483276,103.915611 
	C345.533936,110.469856 342.799438,116.546631 339.937225,122.979492 
z"/>
<path fill="#000000" opacity="1.000000" stroke="none" 
	d="
M167.555206,138.945343 
	C167.554398,128.172440 167.697876,117.891335 167.469818,107.618477 
	C167.398392,104.400375 168.485367,103.900299 171.394928,103.810806 
	C174.613205,103.711800 175.196320,104.801071 175.146210,107.747635 
	C174.968704,118.188309 175.077988,128.633835 175.075470,139.077530 
	C175.075119,140.534805 175.358246,142.512375 173.023041,141.914185 
	C171.121628,141.427094 167.561905,144.149124 167.555206,138.945343 
z"/>
<path fill="#040404" opacity="1.000000" stroke="none" 
	d="
M152.995819,89.229347 
	C152.995850,96.151695 152.995850,102.599915 152.995850,109.111221 
	C150.164398,109.363831 148.850159,108.425346 148.908218,105.574097 
	C149.022797,99.948006 149.027771,94.315926 148.896027,88.690582 
	C148.849075,86.685646 149.545425,85.262810 151.431122,85.213509 
	C154.211472,85.140816 152.491974,87.541046 152.995819,89.229347 
z"/>
<path fill="#E4E4E4" opacity="1.000000" stroke="none" 
	d="
M134.038696,64.175751 
	C137.400238,71.974380 134.998505,78.401970 128.220871,80.593727 
	C122.281105,82.514534 116.115616,78.928749 114.478821,72.601486 
	C113.316704,68.109177 115.481697,63.184410 119.671127,60.790409 
	C124.445259,58.062290 129.150665,59.076614 134.038696,64.175751 
z"/>
<path fill="#E5E5E5" opacity="1.000000" stroke="none" 
	d="
M101.116684,70.025238 
	C100.230377,76.617752 96.839317,80.406097 91.684959,81.006943 
	C86.788628,81.577713 81.794487,78.580711 80.129692,74.072594 
	C78.425339,69.457329 80.135201,64.088913 84.215279,61.245209 
	C91.091728,56.452511 99.437920,60.591824 101.116684,70.025238 
z"/>
<path fill="#D4D4D4" opacity="1.000000" stroke="none" 
	d="
M112.918198,89.734909 
	C116.056793,89.735397 118.711792,89.733467 121.366776,89.737732 
	C122.218361,89.739105 123.101799,89.801399 123.196846,90.896675 
	C123.305237,92.145630 122.584984,92.655594 121.388519,92.653816 
	C112.594147,92.640755 103.799728,92.642723 95.005371,92.622719 
	C93.900864,92.620209 92.964775,92.221558 93.158119,90.904449 
	C93.360313,89.527130 94.568359,89.752640 95.509064,89.748657 
	C101.150826,89.724846 106.792732,89.735672 112.918198,89.734909 
z"/>
<path fill="#D2D2D2" opacity="1.000000" stroke="none" 
	d="
M103.222893,95.921349 
	C107.855621,95.921425 112.020157,95.872528 116.181961,95.957451 
	C117.170158,95.977615 118.766190,95.238861 118.962669,97.036896 
	C119.153542,98.783562 117.697594,98.650467 116.552521,98.653709 
	C111.056702,98.669289 105.560806,98.667122 100.064964,98.657967 
	C98.900719,98.656029 97.420143,98.740158 97.505882,97.104759 
	C97.599159,95.325424 99.239693,96.079056 100.258507,95.943657 
	C101.076767,95.834908 101.920998,95.921463 103.222893,95.921349 
z"/>
<path fill="#DEDEDE" opacity="1.000000" stroke="none" 
	d="
M301.994080,128.479492 
	C302.851532,126.053963 303.609406,124.042145 304.414307,121.905396 
	C306.621399,123.397041 306.462555,125.956017 307.339020,127.983360 
	C307.730988,128.889969 308.827667,130.666077 307.084808,130.665329 
	C305.419830,130.664627 302.288635,133.099548 301.994080,128.479492 
z"/>
<path fill="#050505" opacity="1.000000" stroke="none" 
	d="
M128.760239,62.980873 
	C133.819000,67.439049 134.416977,72.310333 130.706573,75.972076 
	C127.330490,79.303886 121.847031,79.042648 118.800148,75.344551 
	C116.256134,72.256790 116.184494,68.851799 118.359375,65.670509 
	C120.810493,62.085163 124.273865,61.041470 128.760239,62.980873 
z"/>
<path fill="#060606" opacity="1.000000" stroke="none" 
	d="
M94.593330,63.262413 
	C98.397507,66.187149 99.341438,69.750633 97.682915,73.686623 
	C96.345467,76.860626 93.507050,78.367874 90.055336,78.281258 
	C86.309891,78.187271 83.860107,76.124092 82.606995,72.672989 
	C81.461052,69.517014 82.383324,66.663902 84.631691,64.439323 
	C87.389412,61.710777 90.715240,61.225903 94.593330,63.262413 
z"/>
</svg>